<?xml version="1.0" encoding="UTF-8" standalone="no" ?>
<!DOCTYPE svg PUBLIC "-//W3C//DTD SVG 1.1//EN" "http://www.w3.org/Graphics/SVG/1.1/DTD/svg11.dtd">
<svg xmlns="http://www.w3.org/2000/svg" xmlns:xlink="http://www.w3.org/1999/xlink" version="1.1" width="400" height="400" viewBox="0 0 400 400" xml:space="preserve">
<desc>Created with Fabric.js 3.6.2</desc>
<defs>
</defs>
<g transform="matrix(0.45 0 0 0.45 200 200)" id="Layer_1"  >
<path style="stroke: none; stroke-width: 1; stroke-dasharray: none; stroke-linecap: butt; stroke-dashoffset: 0; stroke-linejoin: miter; stroke-miterlimit: 4; fill: rgb(0,0,0); fill-rule: evenodd; opacity: 1;"  transform=" translate(-256, -255.99)" d="M 256 32 C 132.3 32 32 134.8 32 261.7 c 0 101.5 64.2 187.5 153.2 217.9 c 11.2 2.1 15.3 -5 15.3 -11.1 c 0 -5.5 -0.2 -19.9 -0.3 -39.1 c -62.3 13.9 -75.5 -30.8 -75.5 -30.8 c -10.2 -26.5 -24.9 -33.6 -24.9 -33.6 c -20.3 -14.3 1.5 -14 1.5 -14 c 22.5 1.6 34.3 23.7 34.3 23.7 c 20 35.1 52.4 25 65.2 19.1 c 2 -14.8 7.8 -25 14.2 -30.7 c -49.7 -5.8 -102 -25.5 -102 -113.5 c 0 -25.1 8.7 -45.6 23 -61.6 c -2.3 -5.8 -10 -29.2 2.2 -60.8 c 0 0 18.8 -6.2 61.6 23.5 c 17.9 -5.1 37 -7.6 56.1 -7.7 c 19 0.1 38.2 2.6 56.1 7.7 c 42.8 -29.7 61.5 -23.5 61.5 -23.5 c 12.2 31.6 4.5 55 2.2 60.8 c 14.3 16.1 23 36.6 23 61.6 c 0 88.2 -52.4 107.6 -102.3 113.3 c 8 7.1 15.2 21.1 15.2 42.5 c 0 30.7 -0.3 55.5 -0.3 63 c 0 6.1 4 13.3 15.4 11 C 415.9 449.1 480 363.1 480 261.7 C 480 134.8 379.7 32 256 32 z" stroke-linecap="round" />
</g>
</svg>