<?xml version="1.0" encoding="UTF-8" standalone="no" ?>
<!DOCTYPE svg PUBLIC "-//W3C//DTD SVG 1.1//EN" "http://www.w3.org/Graphics/SVG/1.1/DTD/svg11.dtd">
<svg xmlns="http://www.w3.org/2000/svg" xmlns:xlink="http://www.w3.org/1999/xlink" version="1.1" width="400" height="400" viewBox="0 0 400 400" xml:space="preserve">
<desc>Created with Fabric.js 3.6.2</desc>
<defs>
</defs>
<g transform="matrix(10 0 0 10 200 200)"  >
<path style="stroke: none; stroke-width: 1; stroke-dasharray: none; stroke-linecap: butt; stroke-dashoffset: 0; stroke-linejoin: miter; stroke-miterlimit: 4; fill: rgb(101,99,255); fill-rule: nonzero; opacity: 1;"  transform=" translate(-12, -12)" d="M 15.07294 2 H 8.9375 C 3.33331 2 2 3.33331 2 8.92706 V 15.0625 C 2 20.66663 3.32294 22 8.92706 22 H 15.0625 C 20.66669 22 22 20.67706 22 15.07288 V 8.9375 C 22 3.33331 20.67706 2 15.07294 2 Z m 3.07287 14.27081 H 16.6875 c -0.55206 0 -0.71875 -0.44793 -1.70831 -1.4375 c -0.86463 -0.83331 -1.22919 -0.9375 -1.44794 -0.9375 c -0.30206 0 -0.38544 0.08332 -0.38544 0.5 v 1.3125 c 0 0.35419 -0.11456 0.5625 -1.04162 0.5625 a 5.69214 5.69214 0 0 1 -4.44794 -2.66668 A 11.62611 11.62611 0 0 1 5.35419 8.77081 c 0 -0.21875 0.08331 -0.41668 0.5 -0.41668 H 7.3125 c 0.375 0 0.51044 0.16668 0.65625 0.55212 c 0.70831 2.08331 1.91669 3.89581 2.40625 3.89581 c 0.1875 0 0.27081 -0.08331 0.27081 -0.55206 V 10.10413 c -0.0625 -0.97913 -0.58331 -1.0625 -0.58331 -1.41663 a 0.36008 0.36008 0 0 1 0.375 -0.33337 h 2.29169 c 0.3125 0 0.41662 0.15625 0.41662 0.53125 v 2.89587 c 0 0.3125 0.13544 0.41663 0.22919 0.41663 c 0.1875 0 0.33331 -0.10413 0.67706 -0.44788 a 11.99877 11.99877 0 0 0 1.79169 -2.97919 a 0.62818 0.62818 0 0 1 0.63544 -0.41668 H 17.9375 c 0.4375 0 0.53125 0.21875 0.4375 0.53125 A 18.20507 18.20507 0 0 1 16.41669 12.25 c -0.15625 0.23956 -0.21875 0.36456 0 0.64581 c 0.14581 0.21875 0.65625 0.64582 1 1.05207 a 6.48553 6.48553 0 0 1 1.22912 1.70837 C 18.77081 16.0625 18.5625 16.27081 18.14581 16.27081 Z" stroke-linecap="round" />
</g>
</svg>